<svg xmlns="http://www.w3.org/2000/svg" viewBox="0 0 50 50" fill="none">
  <circle cx="25" cy="25" r="25" fill="url(#paint0_linear)"/>
  <path d="M31.8625 20.7324H31.1292C29.9959 20.7324 29.0625 21.5324 29.0625 22.5324V26.5991C29.0625 27.5991 29.9959 28.3991 31.1292 28.3991H31.8625C32.9958 28.3991 33.9292 27.5991 33.9292 26.5991V22.5324C33.8625 21.5324 32.9958 20.7324 31.8625 20.7324Z" fill="#0D9CDE"/>
  <path d="M37.6021 30.9316H37.5354C36.4021 30.9316 35.4688 31.7316 35.4688 32.7316V35.3983C35.4688 36.3983 36.4021 37.1983 37.5354 37.1983H37.6021C38.7354 37.1983 39.6687 36.3983 39.6687 35.3983V32.7316C39.6687 31.7316 38.7354 30.9316 37.6021 30.9316Z" fill="#5871ED"/>
  <path d="M26.2622 10.6641H24.1956C23.0622 10.6641 22.1289 11.4641 22.1289 12.4641V18.2641C22.1289 19.2641 23.0622 20.0641 24.1956 20.0641H26.2622C27.3956 20.0641 28.3289 19.2641 28.3289 18.2641V12.4641C28.2622 11.4641 27.3289 10.6641 26.2622 10.6641Z" fill="#12BF98"/>
  <path d="M26.0031 29.5312H25.2698C24.1365 29.5312 23.2031 30.3312 23.2031 31.3312V35.3979C23.2031 36.3979 24.1365 37.1979 25.2698 37.1979H26.0031C27.1365 37.1979 28.0698 36.3979 28.0698 35.3979V31.2646C28.0698 30.2646 27.1365 29.5312 26.0031 29.5312Z" fill="#169AD9"/>
  <path d="M20.4615 19.0684H18.3948C17.2614 19.0684 16.3281 19.8684 16.3281 20.8684V26.6684C16.3281 27.6684 17.2614 28.4684 18.3948 28.4684H20.4615C21.5948 28.4684 22.5281 27.6684 22.5281 26.6684V20.8684C22.5281 19.8017 21.5948 19.0684 20.4615 19.0684Z" fill="#12BF98"/>
  <path d="M14.7388 27.998H12.6721C11.5388 27.998 10.6055 28.798 10.6055 29.798V35.598C10.6055 36.598 11.5388 37.3981 12.6721 37.3981H14.7388C15.8721 37.3981 16.8055 36.598 16.8055 35.598V29.798C16.8055 28.798 15.8721 27.998 14.7388 27.998Z" fill="#12BF98"/>
  <path d="M16.5945 26.334C16.2612 27.2673 15.7945 27.6673 14.3945 28.2007L16.5945 30.2673C17.0612 29.0673 17.5945 28.6007 19.0612 28.0673L16.5945 26.334Z" fill="#12BF98"/>
  <path d="M22.3953 18.0664C22.062 18.9997 21.5953 19.3997 20.1953 19.9331L22.3953 21.9997C22.862 20.7997 23.3953 20.3331 24.862 19.7997L22.3953 18.0664Z" fill="#12BF98"/>
  <defs>
    <linearGradient id="paint0_linear" x1="0" y1="50.8704" x2="47.1637" y2="-2.50616" gradientUnits="userSpaceOnUse">
      <stop stop-color="#1D293F"/>
      <stop offset="1" stop-color="#3F5988"/>
    </linearGradient>
  </defs>
</svg>
